<svg t="1613993736864" class="icon" viewBox="0 0 1024 1024" version="1.1" xmlns="http://www.w3.org/2000/svg" p-id="3492" width="16" height="16"><path d="M730.368 813.312h-180.48V894.336a37.888 37.888 0 0 1-38.016 37.888 38.144 38.144 0 0 1-37.376-31.36l-0.64-6.784 0.128-80.768H293.376a37.504 37.504 0 1 1 0-75.008h180.608l-0.128-87.936A285.184 285.184 0 0 1 320 579.52l-11.584-10.944a285.888 285.888 0 0 1-84.288-203.648A285.888 285.888 0 0 1 308.352 161.28 285.888 285.888 0 0 1 512 76.992a285.888 285.888 0 0 1 203.648 84.288 286.528 286.528 0 0 1 84.288 203.648 285.888 285.888 0 0 1-84.288 203.648 285.824 285.824 0 0 1-150.208 79.424l-15.552 2.432v87.808h180.48a37.504 37.504 0 1 1 0 75.072z m-68.48-298.496a212.224 212.224 0 0 0 0-299.776 212.224 212.224 0 0 0-299.776 0 212.224 212.224 0 0 0 0 299.776 212.224 212.224 0 0 0 299.776 0z" p-id="3493" fill="#d81e06"></path></svg>