<svg t="1613993776456" class="icon" viewBox="0 0 2611 1024" version="1.1" xmlns="http://www.w3.org/2000/svg" p-id="5552" width="40" height="12"><path d="M2471.936 69.7344H673.0752A275.0976 275.0976 0 0 1 618.7008 0H286.5152C238.5408 90.3168 130.4064 156.8768 0 171.1104V453.12l1.4848 1.024C16.5888 728.6784 203.008 955.648 452.608 1024c41.728-11.5712 82.0736-27.648 120.32-47.9744h1899.008c76.9024 0 139.264-62.464 139.264-139.4688V209.152a139.3664 139.3664 0 0 0-139.264-139.4176zM1952.0512 275.8144c37.12 38.912 63.1296 67.072 78.08 84.3776l-33.28 28.9792c-23.04-30.4128-47.7184-59.5968-73.8304-87.3984l29.0304-25.9584z m-453.376 1.4336a2954.9056 2954.9056 0 0 1 80.4352 86.8864l-32.8192 28.0064a1570.56 1570.56 0 0 0-75.6736-90.368l28.0576-24.5248zM800.768 418.304c0 232.0384-146.1248 428.544-348.16 496.8448-202.0352-68.3008-348.16-264.8064-348.16-496.8448V256.8192c97.9968-28.2624 180.9408-82.3808 236.7488-152.2688h222.7712c55.8592 69.888 138.752 124.0064 236.8 152.2688V418.304z m597.248 293.888c-83.6608-43.008-147.9168-98.6624-192.8192-166.912v205.2096h-37.12V545.792c-48.2304 65.8944-112.64 123.3408-193.2288 172.288a420.4544 420.4544 0 0 0-25.7024-32.8704c86.1696-46.6432 154.2656-102.7584 204.1856-168.3968h-196.608v-36.352h211.3536V388.3008h-183.296v-36.352h183.296v-83.968h37.12v83.968h185.1904v36.352h-185.1904v92.2112h211.3536v36.352H1218.56c51.0976 70.3488 119.808 123.3408 206.1312 159.0272-8.9088 11.1104-17.8688 23.2448-26.6752 36.352z m105.8816-8.3968l-28.16-30.4128c10.24-10.8032 15.3088-25.1904 15.3088-43.2128v-165.376h-63.7952v-35.3792h100.864v200.2944c23.552-19.3024 51.7632-43.3664 84.7872-72.192 1.8944 14.4384 4.4544 27.648 7.6288 39.7824a1695.5904 1695.5904 0 0 0-94.72 80.9984c-8.192 7.68-15.5136 16.2816-21.9136 25.4976z m367.4624 37.376c-67.7376-49.152-113.8688-127.6416-138.24-235.6224-17.5104 98.816-66.2528 180.2752-146.432 244.4288a494.336 494.336 0 0 0-27.5968-31.3856c98.4064-73.0112 147.9168-180.1728 148.48-321.536 1.024-36.6592 1.4848-77.824 1.4848-123.6992h38.5536c-0.3072 42.1376-0.8704 84.2752-1.6384 126.3616 17.408 149.4016 69.5296 250.5728 156.3136 303.616-10.752 12.288-20.992 24.8832-30.9248 37.7856z m77.824-71.168c9.5232-13.824 14.336-30.1056 14.336-49.152v-153.6h-57.6v-35.328h94.208v191.3856c14.592-14.3872 32.6656-33.6896 54.272-57.856 1.28 11.4176 4.3008 25.6 9.0624 42.6496a1872.1792 1872.1792 0 0 0-87.0912 93.7984l-27.136-31.9488z m428.9024 54.9376h-351.744v-36.352h66.1504V417.1776h36.6592v271.4112h75.6736V329.7792h-152.32v-36.352h317.952v36.352h-127.5392v147.7632h110.4384v36.352h-110.4384v174.6944h135.168v36.352zM280.2688 448.9728l-73.8304 73.8816 172.3392 172.544 39.0144 1.7408 4.1984-1.792 311.6032-311.9104-73.8304-73.9328-259.3792 259.6352-120.1152-120.2176z" p-id="5553" fill="#bfbfbf"></path></svg>