<svg t="1613993713153" class="icon" viewBox="0 0 1024 1024" version="1.1" xmlns="http://www.w3.org/2000/svg" p-id="4733" width="16" height="16"><path d="M960.680979 129.356607c-0.385308-1.295064-0.67429-2.632941-1.198737-3.863788-0.064218-0.160545-0.171248-0.278278-0.224763-0.42812a37.460543 37.460543 0 0 0-34.281749-22.45492h-246.169283a37.460543 37.460543 0 1 0 0 74.921086h157.666074l-156.895457 156.895458c-64.474946-61.178418-151.543951-98.778101-247.442942-98.778101-198.637206 0-359.664026 161.02682-359.664026 359.664026s161.02682 359.664026 359.664026 359.664026 359.664026-161.02682 359.664026-359.664026c0-75.670297-23.418191-145.860652-63.340427-203.796058l159.057466-159.057466v153.791584a37.460543 37.460543 0 1 0 74.921086 0v-246.169283a37.310701 37.310701 0 0 0-1.755294-10.724418z m-528.55756 750.687877c-157.013191 0-284.74294-127.740452-284.742939-284.742939s127.729749-284.74294 284.742939-284.74294c157.002488 0 284.74294 127.740452 284.74294 284.74294s-127.740452 284.74294-284.74294 284.742939z" fill="#1296db" p-id="4734"></path></svg>