<svg t="1613993581529" class="icon" viewBox="0 0 1526 1024" version="1.1" xmlns="http://www.w3.org/2000/svg" p-id="2193" width="312" height="216"><path d="M1421.647127 1023.609018H102.078836C45.9776 1023.609018 0 980.526545 0 927.804509V97.456873C0 44.720873 45.9776 1.512727 102.074182 1.512727h1319.721891c56.101236 0 102.078836 43.2128 102.078836 95.944146v830.487272c-0.148945 52.587055-46.126545 95.664873-102.227782 95.664873z" fill="#BDE1FF" p-id="2194"></path><path d="M1035.063855 239.4112h-546.397091c-29.318982 0-53.275927-22.514036-53.275928-50.068945v-34.82531c0-27.554909 23.956945-50.068945 53.271273-50.068945h546.397091c29.318982 0 53.275927 22.518691 53.275927 50.068945v34.82531c0 27.415273-23.956945 50.068945-53.271272 50.068945z" fill="#9FA7B4" p-id="2195"></path><path d="M1034.468073 205.707636H489.257891c-29.612218 0-53.867055-22.797964-53.867055-50.632145s24.254836-50.627491 53.867055-50.627491H1034.472727c29.612218 0 53.867055 22.797964 53.867055 50.627491 0 27.834182-24.110545 50.632145-53.867055 50.632145z" fill="#77583B" p-id="2196"></path><path d="M1346.504145 795.778327H775.852218c-27.229091 0-49.2544-20.982691-49.2544-46.294109 0-25.6 22.318545-46.294109 49.2544-46.294109H1346.653091c27.229091 0 49.2544 20.978036 49.2544 46.294109 0 25.451055-22.3232 46.294109-49.403346 46.294109z m-317.5424-221.821672h-253.258472c-27.229091 0-49.2544-20.978036-49.2544-46.29411 0-25.590691 22.318545-46.294109 49.2544-46.294109h253.258472c27.229091 0 49.2544 20.982691 49.2544 46.294109 0.297891 25.460364-22.025309 46.294109-49.2544 46.29411z" fill="#9FA7B4" p-id="2197"></path><path d="M363.222109 697.734982h-31.837091c-24.557382 0-44.497455-18.883491-44.497454-41.821091V595.781818c0-23.077236 20.089018-41.821091 44.497454-41.821091h31.837091c24.552727 0 44.497455 18.883491 44.497455 41.821091v60.136727c0 23.216873-20.093673 41.821091-44.497455 41.821091z" fill="#EFD2D1" p-id="2198"></path><path d="M560.239709 888.226909v-109.791418c0-51.190691-95.832436-85.038545-212.936145-85.038546-117.108364 0-212.936145 33.847855-212.936146 85.038546v109.786764h425.872291z" fill="#30333A" p-id="2199"></path><path d="M262.483782 559.969745h-34.816c-17.114764 0-31.250618-13.284073-31.250618-29.370181 0-16.081455 14.135855-29.370182 31.250618-29.370182h34.816c17.114764 0 31.250618 13.288727 31.250618 29.370182 0 16.365382-13.986909 29.370182-31.250618 29.370181z m198.055563-2.65309h-34.816c-17.114764 0-31.250618-13.288727-31.250618-29.370182 0-16.086109 14.135855-29.370182 31.245964-29.370182h34.820654c17.114764 0 31.250618 13.284073 31.250619 29.370182 0.148945 16.081455-13.986909 29.370182-31.250619 29.370182z" fill="#DEBFBF" p-id="2200"></path><path d="M541.3376 888.226909v-109.791418c0-51.190691-54.607127-85.038545-194.034036-85.038546-136.303709 0-194.038691 33.847855-194.038691 85.038546v109.786764h388.072727z" fill="#4D4D50" p-id="2201"></path><path d="M347.154618 638.431418c-61.905455 0-112.495709-33.563927-112.495709-95.241309V461.372509c0-61.5424 50.594909-112.030255 112.495709-112.030254 61.9008 0 112.491055 50.348218 112.491055 112.030254V543.185455c0.148945 61.817018-50.594909 95.241309-112.491055 95.241309z" fill="#FFEEEE" p-id="2202"></path><path d="M235.254691 888.226909v-68.254254c0-4.617309-4.016873-8.531782-9.076364-8.531782-4.910545 0-9.076364 3.774836-9.076363 8.531782v68.2496h18.152727z m241.207854 0v-68.254254c0-4.617309-4.016873-8.531782-9.076363-8.531782s-9.076364 3.774836-9.076364 8.531782v68.2496h18.152727z" fill="#30333A" p-id="2203"></path><path d="M389.860073 699.694545h-84.666182c-5.655273 7.549673-5.655273 19.716655 0 27.131346l32.139636 42.798545c5.655273 7.549673 14.731636 7.549673 20.386909 0l32.139637-42.798545c5.655273-7.414691 5.655273-19.721309 0-27.136z" fill="#FFFBFB" p-id="2204"></path><path d="M469.317818 348.085527H311.589236c-18.748509 0-34.9696 12.027345-42.705454 29.230546-24.250182 2.094545-41.216 24.4736-41.216 51.325672l6.842182 72.727273h32.586472c1.6384 0 3.127855-1.256727 3.127855-3.072v-39.582254c0-1.959564 1.340509-3.500218 3.272145-3.500219l145.231128 13.847273c1.6384 0 3.272145 1.536 3.272145 3.495564v24.757527c0 2.234182 1.936291 4.054109 4.314764 4.054109h31.399563c12.6464 0 23.505455-140.278691 23.505455-140.278691 0.898327-7.549673-5.352727-13.0048-11.901673-13.0048z" fill="#DEBFBF" p-id="2205"></path><path d="M476.904727 342.071855H312.189673c-19.0464 0-35.560727 11.887709-43.147637 28.811636-24.706327 1.954909-44.199564 23.775418-44.199563 50.208582l9.076363 71.465891h27.0848c1.633745 0 3.1232-1.256727 3.1232-2.932364v-38.884073c0-1.954909 1.489455-3.355927 3.272146-3.355927l159.962763 13.563345c1.6384 0 3.272145 1.540655 3.272146 3.360582v24.333964c0 2.234182 1.936291 4.054109 4.319418 4.054109h28.718546c8.033745 0 25.739636-137.760582 25.739636-137.760582 0.446836-7.554327-5.804218-12.865164-12.497455-12.865163z" fill="#77583B" p-id="2206"></path><path d="M346.707782 699.131345l-23.659055 48.39331c-4.314764 6.292945-8.778473 13.0048-15.625309 7.130763l-66.960291-46.149818c-5.059491-4.756945-10.416873-8.531782-8.331636-14.405818L253.109527 660.945455c2.085236-5.874036 9.076364-9.090327 15.625309-7.130764l69.641309 30.906182c6.544291 2.0992 10.267927 8.392145 8.331637 14.405818z" fill="#FFEEEE" p-id="2207"></path><path d="M347.899345 698.712436l23.361164 48.532946c4.314764 6.432582 8.629527 13.0048 15.625309 7.130763l67.258182-45.730909c5.059491-4.756945 10.412218-8.531782 8.331636-14.405818l-13.544727-31.329745c-2.080582-5.874036-9.076364-9.090327-15.620654-7.135418l-77.079273 28.532363c-6.548945 1.954909-10.267927 8.531782-8.331637 14.405818z" fill="#FFEEEE" p-id="2208"></path><path d="M371.260509 888.785455H323.346618c-4.910545 0-9.076364-1.819927-9.076363-4.1984l19.34429-125.453964c0-2.234182 4.016873-4.193745 9.076364-4.193746h9.076364c4.910545 0 9.076364 1.815273 9.076363 4.193746l19.344291 125.453964c0.148945 2.373818-3.867927 4.1984-8.927418 4.1984z" fill="#FFFBFB" p-id="2209"></path><path d="M357.720436 768.363055H336.290909c-2.080582 0-3.570036-1.396364-3.570036-3.355928 0-1.954909 1.489455-3.355927 3.570036-3.355927h21.429527c2.080582 0 3.570036 1.396364 3.570037 3.355927 0 1.815273-1.6384 3.355927-3.570037 3.355928z" fill="#E3E8EE" p-id="2210"></path><path d="M516.654545 510.068364c0 135.177309 109.428364 244.763927 244.414837 244.763927 134.991127 0 244.419491-109.586618 244.419491-244.763927 0-135.177309-109.428364-244.759273-244.419491-244.759273-134.981818 0-244.414836 109.581964-244.414837 244.759273z" fill="#000000" fill-opacity=".3" p-id="2211"></path><path d="M652.227491 424.070982h13.763491v56.273454h68.305454v12.674328h-68.305454v78.070691h83.595636v12.674327H586.472727v-12.674327h66.266764V424.075636h-0.512z m137.630254 65.396363a317.179345 317.179345 0 0 1-19.879563 23.319273l-4.077382-14.191709c19.367564-21.801891 33.6384-46.638545 42.817164-75.031273l12.232145 6.083491c-5.096727 14.703709-10.705455 27.880727-17.840873 40.052364v122.177164h-13.251491v-102.40931z m33.6384-42.07709h35.681746l5.608727-23.319273 12.744146 1.522036-5.096728 22.304582h55.561309v12.674327H869.376c-2.550691 9.122909-4.589382 15.7184-6.120727 21.294546h72.382836v12.674327H859.182545c-2.038691 6.083491-5.096727 13.684364-9.169454 23.319273h75.436218v11.152291c-7.647418 12.674327-19.879564 25.348655-36.701091 38.530327 8.154764 4.561455 16.821527 9.122909 24.976291 14.703709l-7.642764 11.152291c-22.430255-15.211055-45.367855-27.378036-68.817454-35.9936l7.135418-10.142255c11.217455 4.561455 22.434909 9.122909 33.135709 14.196364 14.270836-9.634909 25.483636-20.279855 34.1504-31.432145h-78.498909c5.096727-11.659636 9.686109-23.831273 13.763491-35.486255h-30.580364v-12.674327h34.657746c2.038691-6.590836 4.077382-13.689018 6.116073-21.294546h-32.62371V447.394909h-1.019345z" fill="#FFFFFF" p-id="2212"></path></svg>